<svg id="request" data-name="Слой 1" xmlns="http://www.w3.org/2000/svg" xmlns:xlink="http://www.w3.org/1999/xlink" viewBox="0 0 288 295"><defs><style>.cls-1{fill:#1f60ca;opacity:0.5;isolation:isolate;}.cls-2,.cls-3,.cls-4,.cls-5,.cls-6,.cls-7,.cls-8,.cls-9{fill-rule:evenodd;}.cls-2{fill:url(#Безымянный_градиент);}.cls-3{fill:#fdbc02;}.cls-4{fill:#eb6ed3;}.cls-5{fill:url(#Безымянный_градиент_2);}.cls-6{fill:#fbbb03;}.cls-7{fill:url(#Безымянный_градиент_3);}.cls-8{fill:url(#Безымянный_градиент_4);}.cls-9{fill:url(#Безымянный_градиент_5);}</style><linearGradient id="Безымянный_градиент" x1="-347.38" y1="640.04" x2="-346.38" y2="640.04" gradientTransform="matrix(18.71, 0, 0, -18.71, 6734.27, 12107.96)" gradientUnits="userSpaceOnUse"><stop offset="0" stop-color="#00e1ff" stop-opacity="0.23"/><stop offset="1" stop-color="#00f2ff"/></linearGradient><linearGradient id="Безымянный_градиент_2" x1="-358.47" y1="652.56" x2="-358.47" y2="651.58" gradientTransform="matrix(45.71, 0, 0, -48.92, 16534.36, 31955.79)" gradientUnits="userSpaceOnUse"><stop offset="0" stop-color="#ffe000"/><stop offset="1" stop-color="#fa0"/></linearGradient><linearGradient id="Безымянный_градиент_3" x1="-356.97" y1="650.55" x2="-357.97" y2="649.87" gradientTransform="matrix(40.66, 0, 0, -39.21, 14756.94, 25561.37)" gradientUnits="userSpaceOnUse"><stop offset="0" stop-color="#ff719d"/><stop offset="1" stop-color="#eb6ed3"/></linearGradient><linearGradient id="Безымянный_градиент_4" x1="-354.21" y1="646.75" x2="-353.32" y2="646.05" gradientTransform="matrix(28.91, 0, 0, -27.87, 10290.09, 18073.51)" gradientUnits="userSpaceOnUse"><stop offset="0" stop-color="#00f2ff"/><stop offset="1" stop-color="#00e1ff" stop-opacity="0.23"/></linearGradient><linearGradient id="Безымянный_градиент_5" x1="-358.24" y1="648.55" x2="-357.24" y2="648.98" gradientTransform="matrix(42, 0, 0, -34, 15111.02, 22295.08)" xlink:href="#Безымянный_градиент_4"/></defs><title>icon4</title><circle class="cls-1" cx="144" cy="114" r="177"/><path class="cls-2" d="M249.39,139.8a.94.94,0,0,1-1.33,0h0l-3.47-3.47v-7.1a.95.95,0,0,1,1.89,0v6.31l2.92,2.92a1,1,0,0,1,0,1.34h0m-3.86-14.47a9.36,9.36,0,0,0,0,18.71h0a9.35,9.35,0,0,0,9.35-9.35h0a9.36,9.36,0,0,0-9.35-9.36"/><path class="cls-3" d="M66.64,192.65a.75.75,0,0,1-1.07,0h0l-2.8-2.8v-5.71a.76.76,0,0,1,.79-.73.75.75,0,0,1,.73.73v5.08l2.35,2.35a.76.76,0,0,1,0,1.08h0M63.53,181a7.54,7.54,0,1,0,7.54,7.53A7.53,7.53,0,0,0,63.53,181"/><path class="cls-4" d="M176.19,253.72a1.16,1.16,0,0,1-1.63,0h0l-4.26-4.25v-8.7a1.16,1.16,0,1,1,2.32-.06v7.8l3.57,3.57a1.16,1.16,0,0,1,0,1.64h0M171.46,236a11.46,11.46,0,1,0,11.46,11.46A11.46,11.46,0,0,0,171.46,236"/><path class="cls-5" d="M126.65,39.86a1.88,1.88,0,0,1,2.29,1.34l9.17,35.38a1.87,1.87,0,1,1-3.62.94l-9.18-35.38A1.87,1.87,0,0,1,126.65,39.86Zm38-9.86-4,14L171,54.3l-33.18,8.61-6.3-24.3L164.66,30Z"/><path class="cls-6" d="M253.63,198.9l-10.11,4.21L242.33,214l-20.6-15.44L233,183.47l20.6,15.43ZM230,181.23a1.4,1.4,0,0,1,.29,2l-16.46,22a1.42,1.42,0,0,1-2,.34,1.4,1.4,0,0,1-.34-2l.05-.07,16.46-22a1.39,1.39,0,0,1,2-.28Z"/><path class="cls-4" d="M33.94,109l22.9,6.75L51.9,132.52,29,125.77l7.43-6.92Zm26.23,7.73a1.31,1.31,0,0,1,.88,1.62l-7.19,24.41a1.3,1.3,0,0,1-2.5-.73l7.19-24.42a1.31,1.31,0,0,1,1.62-.88Z"/><path class="cls-7" d="M239.89,71.46l-16.66,3.29-8-10.29,7.36-15.3,17.27,22.3Zm-26.82-5.31,8,10.3-5.15,4,6.18,4.14A2.06,2.06,0,0,1,219.85,88l-.07-.05-7.32-4.9-.86.66a6.51,6.51,0,0,1-9.13-1.16c-.13-.17-.25-.35-.37-.53a6.7,6.7,0,0,1,1.75-8.77Zm19.89-11-1.57-.2.6-4.73,1.58.2L233,55.17Zm3.39,2.64-1-1.26,3.77-2.91,1,1.25Zm.54,4.26.2-1.58,4.72.61-.2,1.57-4.72-.6Z"/><path class="cls-8" d="M48.22,56.39,60.5,40.53l5.23,10.88-5.66,7.32Zm19.07-3.77,6.55,5.07a4.75,4.75,0,0,1,1.25,6.24,4.62,4.62,0,0,1-6.38,1.46c-.13-.08-.25-.17-.37-.26l-.61-.47-5.21,3.48a1.46,1.46,0,0,1-1.67-2.4l0,0,4.4-2.94-3.66-2.83,5.66-7.32ZM53.15,44.81l-.43-3.36,1.12-.15.43,3.36-1.12.15Zm-2.41,1.87-2.68-2.07.69-.89,2.68,2.07Zm-.38,3L47,50.14,46.86,49l3.36-.43.14,1.12Z"/><path class="cls-9" d="M80.84,253,66,229.37,83.15,228,90,238.91ZM86,226.16,95.92,220a6.58,6.58,0,0,1,8.78,1.53,6.68,6.68,0,0,1-1.82,9.61l-.92.57,2,8.71a2.1,2.1,0,0,1-.94,2.24,2,2,0,0,1-3.06-1.32L98.27,234l-5.54,3.43ZM68.62,241,64,239.73l.38-1.73L69,239.27ZM70,245.42,65.84,248,65,246.58,69.16,244Zm4,2L72.73,252,71,251.62,72.27,247l1.73.38Z"/></svg>