<?xml version="1.0" encoding="utf-8"?>
<!-- Generator: Adobe Illustrator 23.1.0, SVG Export Plug-In . SVG Version: 6.00 Build 0)  -->
<svg version="1.1" id="request" xmlns="http://www.w3.org/2000/svg" xmlns:xlink="http://www.w3.org/1999/xlink" x="0px" y="0px"
	 viewBox="0 0 288 295" style="enable-background:new 0 0 288 295;" xml:space="preserve">
<style type="text/css">
	.st0{opacity:0.505;fill-rule:evenodd;clip-rule:evenodd;fill:#1F60CA;enable-background:new    ;}
	.st1{fill-rule:evenodd;clip-rule:evenodd;fill:url(#SVGID_1_);}
	.st2{fill-rule:evenodd;clip-rule:evenodd;fill:#FDBC02;}
	.st3{fill-rule:evenodd;clip-rule:evenodd;fill:#EB6ED3;}
	.st4{fill-rule:evenodd;clip-rule:evenodd;fill:url(#SVGID_2_);}
	.st5{fill-rule:evenodd;clip-rule:evenodd;fill:#FBBB03;}
	.st6{fill-rule:evenodd;clip-rule:evenodd;fill:url(#SVGID_3_);}
	.st7{fill-rule:evenodd;clip-rule:evenodd;fill:url(#SVGID_4_);}
	.st8{fill-rule:evenodd;clip-rule:evenodd;fill:url(#SVGID_5_);}
</style>
<g>
	<circle class="st0" cx="144" cy="114" r="177"/>
</g>
<linearGradient id="SVGID_1_" gradientUnits="userSpaceOnUse" x1="-347.3806" y1="640.0421" x2="-346.3806" y2="640.0421" gradientTransform="matrix(18.706 0 0 -18.707 6734.2725 12107.9551)">
	<stop  offset="0" style="stop-color:#00E1FF;stop-opacity:0.233"/>
	<stop  offset="1" style="stop-color:#00F2FF"/>
</linearGradient>
<path class="st1" d="M249.4,139.8c-0.4,0.4-1,0.4-1.3,0c0,0,0,0,0,0l-3.5-3.5v-7.1c0-0.5,0.4-0.9,0.9-0.9s0.9,0.4,0.9,0.9v6.3
	l2.9,2.9C249.8,138.8,249.8,139.4,249.4,139.8C249.4,139.8,249.4,139.8,249.4,139.8 M245.5,125.3c-5.2,0-9.4,4.2-9.4,9.4
	c0,5.2,4.2,9.4,9.4,9.4c0,0,0,0,0,0c5.2,0,9.4-4.2,9.4-9.4c0,0,0,0,0,0C254.9,129.5,250.7,125.3,245.5,125.3"/>
<path class="st2" d="M66.6,192.6c-0.3,0.3-0.8,0.3-1.1,0c0,0,0,0,0,0l-2.8-2.8v-5.7c0-0.4,0.4-0.7,0.8-0.7c0.4,0,0.7,0.3,0.7,0.7
	v5.1l2.4,2.4C66.9,191.9,66.9,192.4,66.6,192.6C66.6,192.6,66.6,192.6,66.6,192.6 M63.5,181c-4.2,0-7.5,3.4-7.5,7.5s3.4,7.5,7.5,7.5
	s7.5-3.4,7.5-7.5C71.1,184.4,67.7,181,63.5,181"/>
<path class="st3" d="M176.2,253.7c-0.4,0.5-1.2,0.5-1.6,0c0,0,0,0,0,0l-4.3-4.3v-8.7c0-0.6,0.5-1.2,1.1-1.2c0.6,0,1.2,0.5,1.2,1.1
	c0,0,0,0,0,0.1v7.7l3.6,3.6C176.6,252.5,176.6,253.3,176.2,253.7C176.2,253.7,176.2,253.7,176.2,253.7 M171.5,236
	c-6.3,0-11.5,5.1-11.5,11.5s5.1,11.5,11.5,11.5s11.5-5.1,11.5-11.5S177.8,236,171.5,236"/>
<linearGradient id="SVGID_2_" gradientUnits="userSpaceOnUse" x1="-358.4714" y1="652.5599" x2="-358.4714" y2="651.5847" gradientTransform="matrix(45.7115 0 0 -48.9239 16534.3633 31955.793)">
	<stop  offset="0" style="stop-color:#FFE000"/>
	<stop  offset="1" style="stop-color:#FFAA00"/>
</linearGradient>
<path class="st4" d="M126.7,39.9c1-0.3,2,0.3,2.3,1.3l9.2,35.4c0.3,1-0.3,2-1.3,2.3c-1,0.3-2-0.3-2.3-1.3l-9.2-35.4
	C125.1,41.1,125.7,40.1,126.7,39.9z M164.7,30l-4,14L171,54.3l-33.2,8.6l-6.3-24.3L164.7,30L164.7,30z"/>
<path class="st5" d="M253.6,198.9l-10.1,4.2l-1.2,10.9l-20.6-15.4l11.3-15.1L253.6,198.9L253.6,198.9z M230,181.2
	c0.6,0.5,0.7,1.3,0.3,2l-16.5,22c-0.4,0.6-1.3,0.8-2,0.3c-0.6-0.4-0.8-1.3-0.3-2c0,0,0,0,0-0.1l16.5-22
	C228.5,180.9,229.4,180.8,230,181.2C230,181.2,230,181.2,230,181.2L230,181.2z"/>
<path class="st3" d="M33.9,109l22.9,6.8l-4.9,16.8L29,125.8l7.4-6.9L33.9,109z M60.2,116.7c0.7,0.2,1.1,0.9,0.9,1.6l-7.2,24.4
	c-0.2,0.7-1,1.1-1.6,0.8c-0.6-0.2-1-0.9-0.9-1.6l7.2-24.4C58.8,116.9,59.5,116.5,60.2,116.7C60.2,116.7,60.2,116.7,60.2,116.7
	L60.2,116.7z"/>
<linearGradient id="SVGID_3_" gradientUnits="userSpaceOnUse" x1="-356.9676" y1="650.5515" x2="-357.9676" y2="649.8683" gradientTransform="matrix(40.6615 0 0 -39.2064 14756.9355 25561.3691)">
	<stop  offset="0" style="stop-color:#FF719D"/>
	<stop  offset="1" style="stop-color:#EB6ED3"/>
</linearGradient>
<path class="st6" d="M239.9,71.5l-16.7,3.3l-8-10.3l7.4-15.3L239.9,71.5L239.9,71.5z M213.1,66.2l8,10.3l-5.1,4l6.2,4.1
	c1,0.6,1.2,1.9,0.6,2.8c-0.6,1-1.9,1.2-2.8,0.6c0,0,0,0-0.1,0l-7.3-4.9l-0.9,0.7c-2.8,2.2-6.9,1.7-9.1-1.2c-0.1-0.2-0.3-0.3-0.4-0.5
	c-1.8-2.9-0.9-6.7,1.8-8.8L213.1,66.2z M233,55.2l-1.6-0.2l0.6-4.7l1.6,0.2L233,55.2L233,55.2z M236.4,57.8l-1-1.3l3.8-2.9l1,1.3
	L236.4,57.8z M236.9,62.1l0.2-1.6l4.7,0.6l-0.2,1.6L236.9,62.1L236.9,62.1z"/>
<linearGradient id="SVGID_4_" gradientUnits="userSpaceOnUse" x1="-354.2109" y1="646.7463" x2="-353.325" y2="646.0519" gradientTransform="matrix(28.9107 0 0 -27.8742 10290.0879 18073.5117)">
	<stop  offset="0" style="stop-color:#00F2FF"/>
	<stop  offset="1" style="stop-color:#00E1FF;stop-opacity:0.233"/>
</linearGradient>
<path class="st7" d="M48.2,56.4l12.3-15.9l5.2,10.9l-5.7,7.3C60.1,58.7,48.2,56.4,48.2,56.4z M67.3,52.6l6.6,5.1
	c1.9,1.5,2.5,4.2,1.2,6.2c-1.4,2.2-4.2,2.8-6.4,1.5c-0.1-0.1-0.3-0.2-0.4-0.3l-0.6-0.5l-5.2,3.5c-0.7,0.5-1.6,0.3-2-0.4
	c-0.5-0.7-0.3-1.6,0.4-2c0,0,0,0,0,0l4.4-2.9l-3.7-2.8L67.3,52.6L67.3,52.6z M53.1,44.8l-0.4-3.4l1.1-0.1l0.4,3.4L53.1,44.8
	L53.1,44.8z M50.7,46.7l-2.7-2.1l0.7-0.9l2.7,2.1C51.4,45.8,50.7,46.7,50.7,46.7z M50.4,49.7L47,50.1L46.9,49l3.4-0.4L50.4,49.7
	L50.4,49.7z"/>
<linearGradient id="SVGID_5_" gradientUnits="userSpaceOnUse" x1="-358.2435" y1="648.553" x2="-357.2435" y2="648.984" gradientTransform="matrix(42.0001 0 0 -34.0001 15111.0225 22295.0801)">
	<stop  offset="0" style="stop-color:#00F2FF"/>
	<stop  offset="1" style="stop-color:#00E1FF;stop-opacity:0.233"/>
</linearGradient>
<path class="st8" d="M80.8,253L66,229.4l17.2-1.4l6.8,10.9L80.8,253z M86,226.2l9.9-6.1c2.9-1.8,6.8-1.2,8.8,1.5
	c2.3,3.2,1.4,7.6-1.8,9.6l-0.9,0.6l1.9,8.7c0.2,0.9-0.2,1.8-0.9,2.2c-1.2,0.7-2.8,0.1-3.1-1.3l-1.6-7.4l-5.5,3.4L86,226.2z
	 M68.6,241l-4.6-1.3l0.4-1.7l4.6,1.3L68.6,241z M70,245.4l-4.2,2.6l-0.8-1.4l4.2-2.6L70,245.4z M74,247.4l-1.3,4.6l-1.7-0.4l1.3-4.6
	L74,247.4L74,247.4z"/>
</svg>
